<svg id="_02.PC_07.Icon_01.CommonIcon_Light_Eyes" data-name="02.PC / 07.Icon / 01.CommonIcon / Light / Eyes" xmlns="http://www.w3.org/2000/svg" width="24" height="24" viewBox="0 0 24 24">
  <path id="Fill_1" data-name="Fill 1" d="M0,24H24V0H0Z" fill="rgba(255,255,255,0)"/>
  <path id="Combined_Shape" data-name="Combined Shape" d="M3.158,8.487a16.584,16.584,0,0,1-2.9-2.672L0,5.5l.256-.315a16.414,16.414,0,0,1,2.9-2.671A11.867,11.867,0,0,1,10.144,0a11.869,11.869,0,0,1,6.987,2.514,16.612,16.612,0,0,1,2.9,2.671l.256.315-.256.315C19.86,6.026,15.754,11,10.144,11A11.863,11.863,0,0,1,3.158,8.487ZM1.31,5.5C2.28,6.555,5.782,10,10.144,10s7.867-3.444,8.834-4.5C18.008,4.445,14.5,1,10.144,1S2.278,4.444,1.31,5.5Zm6.333,0a2.5,2.5,0,1,1,2.5,2.5A2.5,2.5,0,0,1,7.644,5.5Zm1,0a1.5,1.5,0,1,0,1.5-1.5A1.5,1.5,0,0,0,8.644,5.5Z" transform="translate(1.856 6.499)" fill="#777"/>
</svg>
